<?xml version="1.0" encoding="utf-8"?>
<!-- Generator: Adobe Illustrator 24.0.1, SVG Export Plug-In . SVG Version: 6.00 Build 0)  -->
<svg version="1.1"
	 id="DESIGNS" xmlns:cc="http://creativecommons.org/ns#" xmlns:dc="http://purl.org/dc/elements/1.1/" xmlns:rdf="http://www.w3.org/1999/02/22-rdf-syntax-ns#"
	 xmlns="http://www.w3.org/2000/svg" xmlns:xlink="http://www.w3.org/1999/xlink" x="0px" y="0px" viewBox="0 0 32 32"
	 style="enable-background:new 0 0 32 32;" xml:space="preserve">
<style type="text/css">
	.st0{fill:#0C6667;}
	.st1{fill:#01A59C;}
	.st2{fill:#F4D6B0;}
	.st3{fill:#E54D2E;}
</style>
<title  property="dc:title">to calculate</title>
<desc  property="dc:description">
	An icon for &quot;calculate&quot; from the Pictogram series on to [icon]. Downloaded from http://www.toicon.com/icons/pictogram_calculate by 68.34.6.76 on 2019-12-29. Licensed CC-BY, see http://toicon.com/license/ for details.
	</desc>
<g>
	<path class="st0" d="M29,0H3C1.4,0,0,1.4,0,3v11h32V3C32,1.4,30.6,0,29,0z M28,12H4V4h24V12z"/>
	<path class="st1" d="M0,29c0,1.6,1.4,3,3,3h26c1.6,0,3-1.4,3-3V14H0V29z"/>
	<path class="st2" d="M4,4h24v8H4V4z M7,22c1.6,0,3-1.4,3-3s-1.4-3-3-3s-3,1.4-3,3S5.3,22,7,22z M15,22c1.6,0,3-1.4,3-3s-1.4-3-3-3
		s-3,1.4-3,3S13.4,22,15,22z M7,30c1.6,0,3-1.4,3-3s-1.4-3-3-3s-3,1.4-3,3S5.3,30,7,30z M15,30c1.6,0,3-1.4,3-3s-1.4-3-3-3
		s-3,1.4-3,3S13.4,30,15,30z M25,30c1.6,0,3-1.4,3-3s-1.4-3-3-3s-3,1.4-3,3S23.4,30,25,30z"/>
	<path class="st3" d="M25,22c1.6,0,3-1.4,3-3s-1.4-3-3-3s-3,1.4-3,3S23.4,22,25,22z"/>
</g>
</svg>
